<svg width="529" height="134" viewBox="0 0 529 134" fill="none" xmlns="http://www.w3.org/2000/svg">
<path d="M524.5 26.5L525.5 29.5L526 29L527.5 27.5L528 25.5V23L526.5 21L525.5 19.5L521.5 16L516 13L505 9.5L469 2.5L421.5 0.5H373L340 2.5L301 5.5L265 10.5L242 14L232.5 15L209.5 19.5L190 23.5L171 29.5L159 33L147 36.5L134 41.5L119 47.5L105.5 52.5L90 61L81 65L71.5 70L57.5 78L49 83.5L41.5 89.5L32.5 95L24 101L15.5 108.5L8 114.5L1.5 118.5L10.5 132.5L34.5 113L50 102.5L63.5 92L75 84.5L91.5 75.5L134 57L160.5 46.5L169.5 43.5L188 38L206 33L212.5 31.5L226 28L239.5 26L274.5 20L307 16L326.5 14L349.5 12L387.5 9.5H448L466 10.5H471L475 11L491 13L499 14.5L506 16L515 18.5L519 21L523 23.5L524.5 26.5Z" stroke="black"/>
</svg>
